<svg version="1.1" id="Layer_1" xmlns="http://www.w3.org/2000/svg" xmlns:xlink="http://www.w3.org/1999/xlink" x="0px" y="0px"
	 width="100%" viewBox="0 0 374 346" enable-background="new 0 0 374 346" xml:space="preserve">
<path fill="#000000" opacity="1.000000" stroke="none" 
	d="
M208.000000,347.000000 
	C138.690567,347.000000 69.881134,347.000000 1.035848,347.000000 
	C1.035848,231.730621 1.035848,116.461220 1.035848,1.095913 
	C125.559372,1.095913 250.118851,1.095913 374.839172,1.095913 
	C374.839172,116.333153 374.839172,231.666550 374.839172,347.000000 
	C319.461334,347.000000 263.980652,347.000000 208.000000,347.000000 
M191.256302,323.020569 
	C193.449646,321.916321 195.749481,320.981384 197.818909,319.680084 
	C210.463043,311.729218 223.034149,303.662262 235.670547,295.698975 
	C246.503799,288.872009 257.429382,282.191193 268.246033,275.338318 
	C281.517761,266.929993 294.621460,258.252686 307.980713,249.987350 
	C318.897369,243.233231 319.015228,243.425629 319.004395,230.378769 
	C319.000366,225.550232 319.118835,220.717712 318.952972,215.894882 
	C318.874969,213.627213 318.256317,211.378143 317.718933,208.463654 
	C315.368805,206.267776 313.018677,204.071899 310.812927,201.157120 
	C311.921448,199.591507 312.696808,197.462540 314.204071,196.571213 
	C317.969086,194.344742 319.160034,191.253708 319.040070,187.126617 
	C318.882050,181.688385 319.118774,176.238846 318.968262,170.800201 
	C318.865997,167.104813 318.390503,163.419769 317.927612,159.090759 
	C315.298218,156.724792 312.668793,154.358841 310.247009,151.334015 
	C312.071136,149.503677 314.026550,147.782410 315.671173,145.802933 
	C316.691101,144.575333 317.876740,142.964966 317.897430,141.510895 
	C318.046661,131.025772 317.917053,120.536690 317.653076,109.431793 
	C313.796112,106.308578 310.183350,102.807243 306.038239,100.130203 
	C291.229828,90.566498 276.250336,81.267212 261.317352,71.896996 
	C245.986526,62.277157 230.654968,52.658195 215.283066,43.104301 
	C207.177567,38.066608 198.985306,33.168514 190.144623,28.181479 
	C183.876144,32.160526 177.568405,36.079399 171.350113,40.135403 
	C165.021667,44.263256 158.911346,48.738346 152.474197,52.684017 
	C140.477081,60.037693 128.181473,66.908440 116.249977,74.364067 
	C100.934982,83.933952 86.068817,94.237686 70.573318,103.495560 
	C64.233681,107.283218 61.189137,111.416527 61.884315,118.885017 
	C62.632030,126.917877 62.491516,135.033417 63.027882,143.747833 
	C65.736900,145.836334 68.445923,147.924820 71.311905,150.613037 
	C70.447144,151.772614 69.699402,153.047546 68.693466,154.067963 
	C66.549896,156.242355 62.434036,158.223175 62.361542,160.391495 
	C62.010498,170.891190 62.730610,181.426712 63.064339,192.655029 
	C65.697876,195.084106 68.331413,197.513168 71.001999,200.661087 
	C69.133644,202.383698 67.509933,204.579453 65.332924,205.705139 
	C62.802826,207.013412 61.854847,208.437424 61.926125,211.287323 
	C62.123962,219.197433 61.857616,227.119690 62.085175,235.028198 
	C62.141003,236.968491 63.383991,238.874619 63.853069,241.420547 
	C65.164345,243.218719 66.096252,245.609421 67.842834,246.727676 
	C103.758339,269.722565 139.740234,292.614288 175.789001,315.399841 
	C180.460007,318.352264 185.571716,320.607452 191.256302,323.020569 
z"/>
<path fill="#439443" opacity="1.000000" stroke="none" 
	d="
M317.875854,110.048866 
	C317.917053,120.536690 318.046661,131.025772 317.897430,141.510895 
	C317.876740,142.964966 316.691101,144.575333 315.671173,145.802933 
	C314.026550,147.782410 312.071136,149.503677 309.821167,151.797653 
	C301.584381,157.187317 293.726959,162.042679 286.013611,167.117050 
	C284.883148,167.860733 284.437958,169.646027 283.375000,170.909561 
	C279.063934,170.749603 275.811371,171.988281 273.806396,176.088593 
	C271.445435,177.122177 269.162689,177.696457 267.242340,178.865814 
	C260.579773,182.922882 254.009979,187.136215 247.486115,191.413971 
	C246.168655,192.277817 245.206268,193.683167 243.687805,194.875946 
	C241.931320,195.369263 240.398956,195.568237 239.234528,196.329788 
	C235.683151,198.652496 232.381790,201.365479 228.785156,203.609238 
	C222.224380,207.702240 215.532974,211.586868 208.874115,215.521271 
	C202.953445,219.019531 197.003036,222.467468 190.957336,225.482880 
	C190.645447,213.358688 190.441986,201.689209 190.519623,189.845245 
	C194.675491,187.385437 198.665802,185.271774 202.390900,182.764130 
	C205.780762,180.482162 208.882553,177.772247 212.481354,175.181396 
	C214.516998,174.451950 216.329285,174.026871 217.823761,173.093094 
	C225.921799,168.033447 233.941238,162.848038 242.341217,157.802170 
	C246.039810,155.573868 249.384995,153.249374 253.039810,150.763412 
	C262.479187,144.597931 271.608917,138.593887 281.123413,132.719238 
	C284.590302,130.617935 287.672394,128.387238 291.095459,126.015076 
	C293.203918,124.967903 295.037598,124.170601 296.727203,123.137589 
	C303.800293,118.813164 310.830139,114.418068 317.875854,110.048866 
z"/>
<path fill="#439543" opacity="1.000000" stroke="none" 
	d="
M64.081192,240.796463 
	C63.383991,238.874619 62.141003,236.968491 62.085175,235.028198 
	C61.857616,227.119690 62.123962,219.197433 61.926125,211.287323 
	C61.854847,208.437424 62.802826,207.013412 65.332924,205.705139 
	C67.509933,204.579453 69.133644,202.383698 71.302521,200.169434 
	C80.764786,194.041061 89.926529,188.404358 99.418564,182.694473 
	C102.805710,180.392365 105.862556,178.163467 109.209831,175.745239 
	C116.721756,171.085190 123.989677,166.686813 131.136932,162.100388 
	C133.325439,160.695999 135.182922,158.775787 137.595184,157.045563 
	C140.071060,156.633331 142.483749,156.825119 144.157547,155.804794 
	C151.407104,151.385483 158.339874,146.447357 165.579559,142.010727 
	C173.904404,136.909103 182.431351,132.137238 190.840408,127.674919 
	C190.817474,139.770172 190.824661,151.412643 190.485626,163.086426 
	C183.094620,167.343048 176.049835,171.568375 168.677338,175.946411 
	C159.982193,181.201782 151.585129,186.257126 143.277466,191.455353 
	C141.950104,192.285919 141.023529,193.757004 139.528595,194.943329 
	C134.726120,195.853378 130.578293,197.158417 128.378021,201.910904 
	C118.704666,207.703751 109.388847,213.498016 99.691650,219.176453 
	C95.066116,219.755539 90.873291,220.519058 89.796539,226.009674 
	C87.843925,226.962936 86.215248,227.775162 84.648056,228.692413 
	C77.782715,232.710510 70.935181,236.758987 64.081192,240.796463 
z"/>
<path fill="#439542" opacity="1.000000" stroke="none" 
	d="
M63.071083,191.949524 
	C62.730610,181.426712 62.010498,170.891190 62.361542,160.391495 
	C62.434036,158.223175 66.549896,156.242355 68.693466,154.067963 
	C69.699402,153.047546 70.447144,151.772614 71.570892,150.242188 
	C80.530830,144.245834 89.231789,138.620361 98.317673,133.011414 
	C100.212715,132.426758 101.864151,132.046814 103.209457,131.187546 
	C110.536140,126.507843 117.730499,121.620079 125.077591,116.973412 
	C136.999863,109.433159 149.040634,102.080170 160.954330,94.526596 
	C164.625504,92.198990 167.994492,89.400169 171.594971,86.954201 
	C175.203186,84.502983 178.865555,82.117691 182.620941,79.901291 
	C185.612610,78.135628 187.806625,74.448868 191.887665,76.049805 
	C191.423386,87.239136 191.211044,98.062271 190.742493,108.758667 
	C189.739807,108.869347 188.731888,108.884346 188.301224,109.390495 
	C187.403488,110.445587 187.104324,112.360245 186.048172,112.876770 
	C173.871719,118.831810 164.838730,129.436722 152.370834,135.100784 
	C144.819016,138.531509 138.002823,143.611145 130.976913,148.137466 
	C129.942917,148.803604 129.579117,150.510056 128.555603,151.836853 
	C122.100365,155.653076 115.922569,159.255661 109.918633,163.127838 
	C106.763145,165.162949 103.911858,167.669739 100.530487,169.953217 
	C95.213875,170.054077 92.021957,172.718506 89.503189,176.940353 
	C86.382370,178.430206 83.572037,179.799881 80.877625,181.368683 
	C74.911201,184.842545 69.003021,188.416428 63.071083,191.949524 
z"/>
<path fill="#439542" opacity="1.000000" stroke="none" 
	d="
M318.081909,159.730103 
	C318.390503,163.419769 318.865997,167.104813 318.968262,170.800201 
	C319.118774,176.238846 318.882050,181.688385 319.040070,187.126617 
	C319.160034,191.253708 317.969086,194.344742 314.204071,196.571213 
	C312.696808,197.462540 311.921448,199.591507 310.388000,201.532593 
	C300.969391,207.618622 291.975708,213.329193 282.605652,219.023056 
	C281.436035,219.200119 280.529755,219.209137 279.866150,219.614975 
	C266.703125,227.665100 253.533081,235.704880 240.438202,243.865082 
	C229.284821,250.815430 218.267838,257.984894 207.103973,264.918060 
	C201.848694,268.181763 196.390228,271.118286 190.926300,273.758301 
	C190.973297,262.215851 191.117828,251.118179 191.539581,239.827454 
	C195.850540,236.747528 199.777847,233.695786 203.940338,231.008301 
	C212.455658,225.510437 221.119583,220.243317 229.677841,214.811096 
	C234.118683,211.992371 238.462372,209.020737 242.854187,206.124603 
	C245.900894,204.115479 248.954788,202.117249 252.365601,200.062378 
	C259.133667,196.151047 265.605103,192.391617 271.921112,188.387085 
	C274.810577,186.555084 277.394073,184.240570 280.481354,182.113556 
	C284.234650,179.735870 287.622894,177.389526 291.378876,175.003403 
	C294.214966,173.698273 296.753143,172.551300 299.138184,171.144623 
	C305.487976,167.399506 311.771820,163.542557 318.081909,159.730103 
z"/>
<path fill="#439642" opacity="1.000000" stroke="none" 
	d="
M62.738564,143.112885 
	C62.491516,135.033417 62.632030,126.917877 61.884315,118.885017 
	C61.189137,111.416527 64.233681,107.283218 70.573318,103.495560 
	C86.068817,94.237686 100.934982,83.933952 116.249977,74.364067 
	C128.181473,66.908440 140.477081,60.037693 152.474197,52.684017 
	C158.911346,48.738346 165.021667,44.263256 171.350113,40.135403 
	C177.568405,36.079399 183.876144,32.160526 190.469971,28.648365 
	C190.786194,40.342323 190.777069,51.569397 190.408539,62.852699 
	C182.609726,67.311996 175.054459,71.531921 167.752045,76.151543 
	C143.236923,91.660118 118.803696,107.298286 94.368935,122.933449 
	C92.510185,124.122818 90.885223,125.677574 88.822220,127.179001 
	C79.908096,132.567978 71.323326,137.840424 62.738564,143.112885 
z"/>
<path fill="#439642" opacity="1.000000" stroke="none" 
	d="
M317.882690,209.120636 
	C318.256317,211.378143 318.874969,213.627213 318.952972,215.894882 
	C319.118835,220.717712 319.000366,225.550232 319.004395,230.378769 
	C319.015228,243.425629 318.897369,243.233231 307.980713,249.987350 
	C294.621460,258.252686 281.517761,266.929993 268.246033,275.338318 
	C257.429382,282.191193 246.503799,288.872009 235.670547,295.698975 
	C223.034149,303.662262 210.463043,311.729218 197.818909,319.680084 
	C195.749481,320.981384 193.449646,321.916321 190.887894,322.678253 
	C190.375244,311.957794 190.231003,301.579681 190.372681,291.295837 
	C193.754684,288.932190 196.668869,286.189758 199.982162,284.071594 
	C208.630173,278.542999 217.438614,273.264221 226.209579,267.929382 
	C237.401764,261.121826 248.656845,254.417068 259.813812,247.552582 
	C267.076019,243.084351 274.328461,238.580688 281.356750,233.759781 
	C285.079773,231.206039 288.314758,227.940857 292.097198,224.851013 
	C300.910461,219.510315 309.396576,214.315491 317.882690,209.120636 
z"/>
<path fill="#133333" opacity="1.000000" stroke="none" 
	d="
M190.767944,62.796463 
	C190.777069,51.569397 190.786194,40.342323 190.813782,28.661318 
	C198.985306,33.168514 207.177567,38.066608 215.283066,43.104301 
	C230.654968,52.658195 245.986526,62.277157 261.317352,71.896996 
	C276.250336,81.267212 291.229828,90.566498 306.038239,100.130203 
	C310.183350,102.807243 313.796112,106.308578 317.764465,109.740326 
	C310.830139,114.418068 303.800293,118.813164 296.727203,123.137589 
	C295.037598,124.170601 293.203918,124.967903 290.784332,125.852692 
	C282.266815,120.762505 274.400208,115.695152 266.536591,110.623222 
	C261.980469,107.684578 257.500702,104.619453 252.857346,101.826103 
	C247.124954,98.377586 241.113373,95.379608 235.477722,91.786522 
	C220.501221,82.238052 205.661850,72.474480 190.767944,62.796463 
z"/>
<path fill="#133333" opacity="1.000000" stroke="none" 
	d="
M190.086761,291.201538 
	C190.231003,301.579681 190.375244,311.957794 190.499390,322.760773 
	C185.571716,320.607452 180.460007,318.352264 175.789001,315.399841 
	C139.740234,292.614288 103.758339,269.722565 67.842834,246.727676 
	C66.096252,245.609421 65.164345,243.218719 63.967133,241.108505 
	C70.935181,236.758987 77.782715,232.710510 84.648056,228.692413 
	C86.215248,227.775162 87.843925,226.962936 90.089279,226.178558 
	C92.048119,227.266174 93.297348,228.377853 94.686119,229.273102 
	C105.417000,236.190414 116.104965,243.178421 126.949654,249.913559 
	C133.853241,254.201065 141.105637,257.926819 148.010483,262.212402 
	C154.595230,266.299286 160.987915,270.704895 167.363647,275.116882 
	C174.994202,280.397247 182.517181,285.833069 190.086761,291.201538 
z"/>
<path fill="#173A32" opacity="1.000000" stroke="none" 
	d="
M63.067711,192.302277 
	C69.003021,188.416428 74.911201,184.842545 80.877625,181.368683 
	C83.572037,179.799881 86.382370,178.430206 89.846573,177.084946 
	C93.398117,179.055679 96.243195,180.911667 99.088272,182.767670 
	C89.926529,188.404358 80.764786,194.041061 71.283997,199.809998 
	C68.331413,197.513168 65.697876,195.084106 63.067711,192.302277 
z"/>
<path fill="#173931" opacity="1.000000" stroke="none" 
	d="
M62.883224,143.430359 
	C71.323326,137.840424 79.908096,132.567978 89.141495,127.299507 
	C92.504341,129.200623 95.218544,131.097748 97.932755,132.994873 
	C89.231789,138.620361 80.530830,144.245834 71.492409,149.942322 
	C68.445923,147.924820 65.736900,145.836334 62.883224,143.430359 
z"/>
<path fill="#163832" opacity="1.000000" stroke="none" 
	d="
M317.800812,208.792145 
	C309.396576,214.315491 300.910461,219.510315 291.806732,224.693939 
	C288.453430,222.801743 285.717712,220.920761 282.982025,219.039764 
	C291.975708,213.329193 300.969391,207.618622 310.315826,201.892044 
	C313.018677,204.071899 315.368805,206.267776 317.800812,208.792145 
z"/>
<path fill="#163833" opacity="1.000000" stroke="none" 
	d="
M318.004761,159.410431 
	C311.771820,163.542557 305.487976,167.399506 299.138184,171.144623 
	C296.753143,172.551300 294.214966,173.698273 291.040405,174.922058 
	C288.114685,173.570114 285.895172,172.259735 283.675690,170.949341 
	C284.437958,169.646027 284.883148,167.860733 286.013611,167.117050 
	C293.726959,162.042679 301.584381,157.187317 309.717346,152.127075 
	C312.668793,154.358841 315.298218,156.724792 318.004761,159.410431 
z"/>
<path fill="#143333" opacity="1.000000" stroke="none" 
	d="
M190.998703,108.885406 
	C191.211044,98.062271 191.423386,87.239136 192.213120,76.185318 
	C201.359848,81.692123 209.832642,87.581284 218.530548,93.116745 
	C224.921463,97.184006 231.757996,100.553276 238.130875,104.646294 
	C252.421143,113.824272 266.546265,123.259415 280.738647,132.589844 
	C271.608917,138.593887 262.479187,144.597931 252.768921,150.581818 
	C249.729202,148.773483 247.353317,146.855133 244.796997,145.218658 
	C230.565857,136.108444 216.221634,127.172691 202.075485,117.933212 
	C198.106552,115.340904 194.676132,111.924042 190.998703,108.885406 
z"/>
<path fill="#000000" opacity="1.000000" stroke="none" 
	d="
M281.123413,132.719238 
	C266.546265,123.259415 252.421143,113.824272 238.130875,104.646294 
	C231.757996,100.553276 224.921463,97.184006 218.530548,93.116745 
	C209.832642,87.581284 201.359848,81.692123 192.465057,75.819122 
	C187.806625,74.448868 185.612610,78.135628 182.620941,79.901291 
	C178.865555,82.117691 175.203186,84.502983 171.594971,86.954201 
	C167.994492,89.400169 164.625504,92.198990 160.954330,94.526596 
	C149.040634,102.080170 136.999863,109.433159 125.077591,116.973412 
	C117.730499,121.620079 110.536140,126.507843 103.209457,131.187546 
	C101.864151,132.046814 100.212715,132.426758 98.317673,133.011414 
	C95.218544,131.097748 92.504341,129.200623 89.470863,127.182991 
	C90.885223,125.677574 92.510185,124.122818 94.368935,122.933449 
	C118.803696,107.298286 143.236923,91.660118 167.752045,76.151543 
	C175.054459,71.531921 182.609726,67.311996 190.408539,62.852699 
	C205.661850,72.474480 220.501221,82.238052 235.477722,91.786522 
	C241.113373,95.379608 247.124954,98.377586 252.857346,101.826103 
	C257.500702,104.619453 261.980469,107.684578 266.536591,110.623222 
	C274.400208,115.695152 282.266815,120.762505 290.443298,125.994156 
	C287.672394,128.387238 284.590302,130.617935 281.123413,132.719238 
z"/>
<path fill="#000000" opacity="1.000000" stroke="none" 
	d="
M190.742493,108.758667 
	C194.676132,111.924042 198.106552,115.340904 202.075485,117.933212 
	C216.221634,127.172691 230.565857,136.108444 244.796997,145.218658 
	C247.353317,146.855133 249.729202,148.773483 252.459274,150.743271 
	C249.384995,153.249374 246.039810,155.573868 242.097778,157.578491 
	C236.199417,154.203186 230.859695,151.211838 225.604202,148.079208 
	C214.003799,141.164627 202.445801,134.178864 190.870514,127.222137 
	C182.431351,132.137238 173.904404,136.909103 165.579559,142.010727 
	C158.339874,146.447357 151.407104,151.385483 144.157547,155.804794 
	C142.483749,156.825119 140.071060,156.633331 137.272247,156.883560 
	C133.999146,155.090256 131.452194,153.412704 128.905228,151.735168 
	C129.579117,150.510056 129.942917,148.803604 130.976913,148.137466 
	C138.002823,143.611145 144.819016,138.531509 152.370834,135.100784 
	C164.838730,129.436722 173.871719,118.831810 186.048172,112.876770 
	C187.104324,112.360245 187.403488,110.445587 188.301224,109.390495 
	C188.731888,108.884346 189.739807,108.869347 190.742493,108.758667 
z"/>
<path fill="#153534" opacity="1.000000" stroke="none" 
	d="
M139.911667,194.931976 
	C141.023529,193.757004 141.950104,192.285919 143.277466,191.455353 
	C151.585129,186.257126 159.982193,181.201782 168.857468,176.245544 
	C176.323029,180.934540 183.280777,185.477142 190.238525,190.019745 
	C190.441986,201.689209 190.645447,213.358688 190.636292,225.563416 
	C188.478058,225.486679 186.335678,225.210571 184.620102,224.205795 
	C176.214859,219.283112 167.787720,214.374100 159.633484,209.053864 
	C152.868195,204.639847 146.471603,199.660736 139.911667,194.931976 
z"/>
<path fill="#000000" opacity="1.000000" stroke="none" 
	d="
M139.528595,194.943329 
	C146.471603,199.660736 152.868195,204.639847 159.633484,209.053864 
	C167.787720,214.374100 176.214859,219.283112 184.620102,224.205795 
	C186.335678,225.210571 188.478058,225.486679 190.744720,226.018143 
	C197.003036,222.467468 202.953445,219.019531 208.874115,215.521271 
	C215.532974,211.586868 222.224380,207.702240 228.785156,203.609238 
	C232.381790,201.365479 235.683151,198.652496 239.234528,196.329788 
	C240.398956,195.568237 241.931320,195.369263 243.876541,195.154160 
	C246.973587,196.968246 249.489532,198.541199 252.005478,200.114136 
	C248.954788,202.117249 245.900894,204.115479 242.854187,206.124603 
	C238.462372,209.020737 234.118683,211.992371 229.677841,214.811096 
	C221.119583,220.243317 212.455658,225.510437 203.940338,231.008301 
	C199.777847,233.695786 195.850540,236.747528 191.174500,239.729263 
	C189.349915,239.239960 188.083374,238.780884 186.999390,238.050781 
	C181.144836,234.107468 175.367126,230.049805 169.502762,226.121399 
	C161.908768,221.034317 154.405441,215.787292 146.582825,211.074310 
	C140.868118,207.631317 134.701019,204.939194 128.735580,201.912338 
	C130.578293,197.158417 134.726120,195.853378 139.528595,194.943329 
z"/>
<path fill="#143434" opacity="1.000000" stroke="none" 
	d="
M190.840408,127.674911 
	C202.445801,134.178864 214.003799,141.164627 225.604202,148.079208 
	C230.859695,151.211838 236.199417,154.203186 241.744354,157.482300 
	C233.941238,162.848038 225.921799,168.033447 217.823761,173.093094 
	C216.329285,174.026871 214.516998,174.451950 212.119110,175.091827 
	C204.535172,171.066238 197.683502,167.060669 190.831833,163.055115 
	C190.824661,151.412643 190.817474,139.770172 190.840408,127.674911 
z"/>
<path fill="#000000" opacity="1.000000" stroke="none" 
	d="
M190.485626,163.086426 
	C197.683502,167.060669 204.535172,171.066238 211.749084,175.161377 
	C208.882553,177.772247 205.780762,180.482162 202.390900,182.764130 
	C198.665802,185.271774 194.675491,187.385437 190.519623,189.845245 
	C183.280777,185.477142 176.323029,180.934540 169.185150,176.092804 
	C176.049835,171.568375 183.094620,167.343048 190.485626,163.086426 
z"/>
<path fill="#183A34" opacity="1.000000" stroke="none" 
	d="
M252.365601,200.062378 
	C249.489532,198.541199 246.973587,196.968246 244.268906,195.117065 
	C245.206268,193.683167 246.168655,192.277817 247.486115,191.413971 
	C254.009979,187.136215 260.579773,182.922882 267.242340,178.865814 
	C269.162689,177.696457 271.445435,177.122177 273.977295,176.380646 
	C276.300476,178.372437 278.208405,180.258667 280.116333,182.144897 
	C277.394073,184.240570 274.810577,186.555084 271.921112,188.387085 
	C265.605103,192.391617 259.133667,196.151047 252.365601,200.062378 
z"/>
<path fill="#000000" opacity="1.000000" stroke="none" 
	d="
M280.481354,182.113556 
	C278.208405,180.258667 276.300476,178.372437 274.221649,176.194168 
	C275.811371,171.988281 279.063934,170.749603 283.375000,170.909576 
	C285.895172,172.259735 288.114685,173.570114 290.672668,174.961823 
	C287.622894,177.389526 284.234650,179.735870 280.481354,182.113556 
z"/>
<path fill="#000000" opacity="1.000000" stroke="none" 
	d="
M282.605652,219.023071 
	C285.717712,220.920761 288.453430,222.801743 291.479584,224.839798 
	C288.314758,227.940857 285.079773,231.206039 281.356750,233.759781 
	C274.328461,238.580688 267.076019,243.084351 259.813812,247.552582 
	C248.656845,254.417068 237.401764,261.121826 226.209579,267.929382 
	C217.438614,273.264221 208.630173,278.542999 199.982162,284.071594 
	C196.668869,286.189758 193.754684,288.932190 190.372681,291.295837 
	C182.517181,285.833069 174.994202,280.397247 167.363647,275.116882 
	C160.987915,270.704895 154.595230,266.299286 148.010483,262.212402 
	C141.105637,257.926819 133.853241,254.201065 126.949654,249.913559 
	C116.104965,243.178421 105.417000,236.190414 94.686119,229.273102 
	C93.297348,228.377853 92.048119,227.266174 90.441513,226.085846 
	C90.873291,220.519058 95.066116,219.755539 99.909683,219.416504 
	C108.680794,225.071899 116.778061,230.490952 125.044250,235.638718 
	C134.112442,241.285919 143.374222,246.621277 152.482864,252.204758 
	C163.729263,259.098663 174.876160,266.155334 186.148224,273.006470 
	C187.512054,273.835388 189.386215,273.824646 191.023834,274.203094 
	C196.390228,271.118286 201.848694,268.181763 207.103973,264.918060 
	C218.267838,257.984894 229.284821,250.815430 240.438202,243.865082 
	C253.533081,235.704880 266.703125,227.665100 279.866150,219.614975 
	C280.529755,219.209137 281.436035,219.200119 282.605652,219.023071 
z"/>
<path fill="#143334" opacity="1.000000" stroke="none" 
	d="
M190.926300,273.758301 
	C189.386215,273.824646 187.512054,273.835388 186.148224,273.006470 
	C174.876160,266.155334 163.729263,259.098663 152.482864,252.204758 
	C143.374222,246.621277 134.112442,241.285919 125.044250,235.638718 
	C116.778061,230.490952 108.680794,225.071899 100.291061,219.532349 
	C109.388847,213.498016 118.704666,207.703751 128.378021,201.910904 
	C134.701019,204.939194 140.868118,207.631317 146.582825,211.074310 
	C154.405441,215.787292 161.908768,221.034317 169.502762,226.121399 
	C175.367126,230.049805 181.144836,234.107468 186.999390,238.050781 
	C188.083374,238.780884 189.349915,239.239960 190.897278,239.922302 
	C191.117828,251.118179 190.973297,262.215851 190.926300,273.758301 
z"/>
<path fill="#173932" opacity="1.000000" stroke="none" 
	d="
M128.555603,151.836853 
	C131.452194,153.412704 133.999146,155.090256 136.869049,156.929779 
	C135.182922,158.775787 133.325439,160.695999 131.136932,162.100388 
	C123.989677,166.686813 116.721756,171.085190 108.931015,175.579437 
	C105.882248,173.723160 103.402725,171.843353 100.923203,169.963547 
	C103.911858,167.669739 106.763145,165.162949 109.918633,163.127838 
	C115.922569,159.255661 122.100365,155.653076 128.555603,151.836853 
z"/>
<path fill="#000000" opacity="1.000000" stroke="none" 
	d="
M100.530487,169.953217 
	C103.402725,171.843353 105.882248,173.723160 108.640594,175.768753 
	C105.862556,178.163467 102.805710,180.392365 99.418564,182.694473 
	C96.243195,180.911667 93.398117,179.055679 90.209656,177.055099 
	C92.021957,172.718506 95.213875,170.054077 100.530487,169.953217 
z"/>
</svg>