<?xml version="1.0" encoding="utf-8"?>
<svg viewBox="0 0 500 500" xmlns="http://www.w3.org/2000/svg">
  <defs/>
  <path d="M 70.146 116.411 C 69.732 116.411 69.396 116.747 69.396 117.161 C 69.396 117.576 69.732 117.911 70.146 117.911 L 76.146 117.911 C 76.561 117.911 76.896 117.576 76.896 117.161 C 76.896 116.747 76.561 116.411 76.146 116.411 L 70.146 116.411 Z" fill="#877EFF"/>
  <path fill-rule="evenodd" clip-rule="evenodd" d="M 73.146 100.411 C 72.438 100.411 71.795 100.614 71.097 100.954 C 70.422 101.282 69.643 101.766 68.669 102.37 L 66.603 103.652 C 65.681 104.224 64.944 104.682 64.375 105.117 C 63.787 105.568 63.334 106.027 63.008 106.624 C 62.682 107.22 62.535 107.853 62.465 108.602 C 62.396 109.328 62.396 110.216 62.396 111.329 L 62.396 112.941 C 62.396 114.845 62.396 116.348 62.549 117.523 C 62.706 118.728 63.035 119.702 63.779 120.471 C 64.526 121.244 65.477 121.589 66.654 121.753 C 67.795 121.911 69.252 121.911 71.088 121.911 L 75.204 121.911 C 77.041 121.911 78.498 121.911 79.639 121.753 C 80.816 121.589 81.767 121.244 82.514 120.471 C 83.258 119.702 83.587 118.728 83.744 117.523 C 83.896 116.348 83.896 114.845 83.896 112.941 L 83.896 111.329 C 83.896 110.216 83.896 109.328 83.828 108.602 C 83.758 107.853 83.611 107.22 83.285 106.624 C 82.958 106.027 82.506 105.568 81.917 105.117 C 81.349 104.682 80.611 104.224 79.69 103.652 L 77.623 102.37 C 76.65 101.766 75.87 101.282 75.196 100.954 C 74.498 100.614 73.854 100.411 73.146 100.411 Z M 69.426 103.666 C 70.442 103.035 71.156 102.593 71.753 102.303 C 72.335 102.02 72.747 101.911 73.146 101.911 C 73.546 101.911 73.958 102.02 74.54 102.303 C 75.137 102.593 75.851 103.035 76.867 103.666 L 78.867 104.907 C 79.828 105.503 80.502 105.923 81.005 106.308 C 81.495 106.683 81.777 106.993 81.969 107.344 C 82.163 107.697 82.275 108.11 82.335 108.743 C 82.396 109.39 82.396 110.207 82.396 111.365 L 82.396 112.886 C 82.396 114.857 82.395 116.263 82.256 117.33 C 82.12 118.378 81.863 118.986 81.436 119.428 C 81.011 119.867 80.433 120.128 79.432 120.267 C 78.407 120.41 77.054 120.411 75.146 120.411 L 71.146 120.411 C 69.239 120.411 67.886 120.41 66.861 120.267 C 65.859 120.128 65.282 119.867 64.857 119.428 C 64.429 118.986 64.173 118.378 64.037 117.33 C 63.898 116.263 63.896 114.857 63.896 112.886 L 63.896 111.365 C 63.896 110.207 63.897 109.39 63.958 108.743 C 64.017 108.11 64.13 107.697 64.323 107.344 C 64.516 106.993 64.798 106.683 65.287 106.308 C 65.79 105.923 66.465 105.503 67.426 104.907 L 69.426 103.666 Z" fill="#877EFF"/>
</svg>